<svg width="37" height="24" viewBox="0 0 37 24" fill="none" xmlns="http://www.w3.org/2000/svg">
<g clip-path="url(#clip0_2607_235)">
<path d="M0.22876 23.1914H36.9985V0.191406L0.22876 0.191406L0.22876 23.1914Z" fill="black"/>
<path d="M0.654541 22.7789H36.6067V0.610107H0.654541V22.7789Z" fill="white"/>
<path d="M8.58474 12.89L9.28027 13.6756L9.99896 12.8952H10.5748V13.1363L9.67412 14.1175L10.5748 15.1665V12.8952H12.2004C12.5079 12.8952 12.9587 13.0352 12.9587 13.6632C12.9587 14.5442 12.3655 14.5547 12.0407 14.5547H11.1965V15.4077H9.99317L9.25806 14.5718L8.5051 15.4015H6.1125V12.8895H8.58474V12.89V12.89ZM15.9498 12.89H18.0002V13.4316H16.5773V13.902H17.9606V14.3786H16.5773V14.876H18.0002V15.402H15.9498V12.89V12.89ZM13.883 15.4081H13.2555V12.8957H14.8865C15.1949 12.8957 15.6394 13.0305 15.6394 13.5683C15.6394 13.8721 15.5482 14.0957 15.206 14.2642C15.5024 14.2979 15.6168 14.4887 15.6168 14.8922L15.6394 15.4081H15.0289L15.012 14.9477C15.0067 14.7351 14.9207 14.5219 14.7045 14.5219H13.883V15.4081V15.4081ZM21.9378 13.8692C22.7096 13.9072 22.7733 14.2865 22.7733 14.69C22.7733 15.1608 22.3799 15.4134 21.9692 15.4134H20.652V14.8756H21.6786C21.8528 14.8756 22.112 14.8756 22.112 14.6335C22.112 14.5186 22.0662 14.446 21.8808 14.426C21.7368 14.4123 21.5925 14.4025 21.4479 14.3966C20.7514 14.3786 20.5897 14.0382 20.5897 13.6234C20.5897 13.1525 20.9261 12.8947 21.3369 12.8947H22.6541V13.4335H21.6902C21.4711 13.4363 21.2341 13.4079 21.2341 13.6523C21.2341 13.8061 21.3514 13.837 21.4991 13.8517C21.5502 13.8522 21.8924 13.8692 21.9378 13.8692V13.8692ZM19.5882 13.8692C20.3595 13.9072 20.4237 14.2865 20.4237 14.69C20.4237 15.1608 20.0298 15.4134 19.6195 15.4134H18.3018V14.8756H19.3285C19.5022 14.8756 19.7624 14.8756 19.7624 14.6335C19.7624 14.5186 19.7166 14.446 19.5312 14.426C19.4482 14.4146 19.1431 14.3976 19.0983 14.3966C18.4018 14.3786 18.2401 14.0382 18.2401 13.6234C18.2401 13.1525 18.5765 12.8947 18.9868 12.8947H20.3044V13.4335H19.3406C19.1209 13.4363 18.8844 13.4079 18.8844 13.6523C18.8844 13.8061 19.0012 13.837 19.1499 13.8517C19.2006 13.8522 19.5428 13.8692 19.5882 13.8692V13.8692ZM11.322 11.0895H10.6945V8.57707H12.3254C12.6334 8.57707 13.0789 8.71188 13.0789 9.24968C13.0789 9.553 12.9877 9.77753 12.6454 9.94556C12.9418 9.97926 13.0562 10.1701 13.0562 10.5736L13.0789 11.0895H12.4688L12.4514 10.6296C12.4456 10.4164 12.3607 10.2038 12.1435 10.2038H11.3224V11.0895H11.322V11.0895ZM13.3984 11.0895H14.0254V8.57422H13.3984V11.0895ZM8.285 8.57707H10.3349V9.1182H8.91344V9.58955H10.2958V10.0666H8.91344V10.5626H10.3349V11.0895H8.285V8.57707V8.57707ZM3.70688 11.0895H4.97003V9.225L5.80794 11.0895H6.37846L7.23616 9.25586V11.0895H7.86315V8.57707H6.86257L6.09272 10.2626L5.32575 8.57707H4.34207V10.997L3.24689 8.57707H2.41767L1.2998 11.0895H1.96154L2.20626 10.5289H3.45782L3.70688 11.0895V11.0895ZM17.6348 10.5304H16.3837L16.1385 11.091H15.3112C14.6157 11.091 14.3073 10.5175 14.3222 9.82214C14.3435 8.7902 14.9637 8.57564 15.249 8.57564H16.0676V9.12247H15.68C15.2634 9.12247 14.9386 9.16519 14.9386 9.75379V9.93607C14.9415 10.3789 15.1775 10.4838 15.3286 10.5147C15.3658 10.5232 15.4343 10.5266 15.4594 10.5247L15.7307 10.5232L16.5946 8.57707H17.4248L18.4939 10.9353V8.57564H19.4202L20.4782 10.3153V8.57564H21.1052V11.091H20.2499L19.1209 9.25111V11.091H17.8834L17.6348 10.5304V10.5304Z" fill="#00ACEC"/>
<path d="M22.6595 12.5036V1.32019H1.354V9.96786L2.15282 8.19636H3.51009L3.95511 9.25014V8.19636H5.60826L6.11023 9.2397L6.60062 8.19636H12.4289C12.6567 8.19636 12.9646 8.27516 13.1022 8.52152V8.19636H14.3224V8.57753C14.4821 8.36487 14.7215 8.19636 15.1888 8.19636H17.6755L18.1316 9.21644V8.19636H19.6033L20.1274 9.08258V8.19636H21.4731V11.4707H20.0251L19.4203 10.5066V11.4707H17.5843L17.2879 10.8313H16.7058L16.4321 11.4707H15.28C15.029 11.4488 14.4479 11.3473 14.3224 10.9666V11.4707H12.1098V10.7534C12.1098 10.6519 12.0186 10.5289 11.8931 10.5289H11.6537V11.4707H6.94284V10.7307L6.58952 11.4707H5.63142L5.26653 10.7193V11.4707H3.3846L3.13361 10.8878H2.52882L2.26673 11.4707H1.354V22.0479H22.6595V15.5652C22.5456 15.6891 22.3632 15.7898 22.0895 15.7898H20.3094V15.5429C20.1728 15.6891 19.9793 15.7898 19.6708 15.7898H14.653V15.1058C14.6414 15.0156 14.6873 14.8252 14.4363 14.8252H14.2312V15.7898H12.8966V14.6786C12.7595 14.904 12.4636 14.9145 12.2696 14.9259H11.562V15.7898H9.78287L9.26931 15.1727L8.72196 15.7898H5.69996V12.5036H8.76781L9.30358 13.0979L9.85141 12.5036H12.2807C12.4515 12.514 12.7764 12.5928 12.8966 12.7722V12.5036H14.9725C15.155 12.5036 15.5083 12.5814 15.657 12.8169V12.5036H18.2571V12.7946C18.3937 12.6156 18.6109 12.5036 18.941 12.5036H20.6063V12.7841C20.7317 12.6042 21.0629 12.5036 21.2569 12.5036H22.6595V12.5036ZM28.523 12.2178C28.523 12.6379 26.8969 12.1746 26.8969 13.1961C26.8969 13.6627 27.2806 13.874 27.7121 13.874C28.0524 13.874 28.3135 13.8047 28.5713 13.5688L28.6639 13.8089H29.484C29.4372 13.7216 29.4299 13.6077 29.4299 13.4795V12.4286C29.4299 11.8922 29.3643 11.4977 28.2831 11.4977C27.3805 11.4977 27.0359 11.7764 27.0359 12.252H27.9081C27.9298 12.0593 28.1002 12.0341 28.2266 12.0341C28.3232 12.0341 28.523 12.0555 28.523 12.2178V12.2178ZM33.2416 13.5061V13.8066H34.0563V10.7183H33.1504V11.7863C32.9578 11.5632 32.7575 11.4949 32.4698 11.4949C31.9244 11.4949 31.5016 11.9791 31.5016 12.7257C31.5016 13.3604 31.8505 13.8707 32.5393 13.8707C32.8323 13.8707 33.0282 13.7809 33.2416 13.5061V13.5061ZM31.2665 12.2681V11.5077C31.2274 11.5034 31.1878 11.4949 31.1482 11.4949C30.7959 11.4949 30.5729 11.662 30.4464 12.0142H30.4378V11.5594H29.6138V13.8061H30.5203V12.9213C30.5203 12.4367 30.708 12.2648 31.0787 12.2648L31.2665 12.2681V12.2681ZM25.8534 11.8931C25.8225 11.5723 25.6173 11.3876 25.2949 11.3876C24.9329 11.3876 24.7147 11.6924 24.7147 12.2881C24.7147 12.7215 24.8108 13.1283 25.3335 13.1283C25.6656 13.1283 25.8225 12.9018 25.862 12.6056H26.8515C26.7608 13.4031 26.1801 13.8825 25.3523 13.8825C24.3146 13.8825 23.6862 13.2578 23.6862 12.2534C23.6862 11.2542 24.3749 10.6324 25.2519 10.6324C26.211 10.6324 26.7477 11.1 26.8308 11.8927H25.8534V11.8931V11.8931Z" fill="#00ACEC"/>
<path d="M11.1972 14.0396H11.9786C12.2349 14.0396 12.3261 13.8934 12.3261 13.7254C12.3261 13.602 12.2436 13.4372 11.981 13.4372H11.1972V14.0396ZM8.1631 13.4316H6.74067V13.902H8.12304V14.3785H6.74067V14.876H8.18627L8.87648 14.1179L8.26591 13.4339L8.1631 13.4316ZM13.8832 14.0064H14.6647C14.921 14.0064 15.0122 13.8939 15.0122 13.7254C15.0122 13.602 14.9296 13.4372 14.6671 13.4372H13.8832V14.0064V14.0064ZM11.3222 9.68778H12.1036C12.3604 9.68778 12.4511 9.57575 12.4511 9.40724C12.4511 9.2843 12.3686 9.11816 12.106 9.11816H11.3222V9.68778V9.68778ZM3.21573 9.98825H2.45215L2.8267 9.10962L3.21573 9.98825ZM17.0027 9.11104L16.6291 9.9892H17.3956L17.0027 9.11104Z" fill="white"/>
<path d="M35.7438 14.4949L28.0688 22.0422H29.1587L35.7438 15.5667V14.4949Z" fill="#3B4095"/>
<path d="M35.7436 16.6067L30.217 22.0422H31.3059L35.7436 17.679V16.6067Z" fill="#00ACEC"/>
<path d="M35.7437 18.719L32.3635 22.0422H33.4544L35.7437 19.7903V18.719Z" fill="#6CB35E"/>
<path d="M23.439 20.8536C23.4393 20.6969 23.471 20.5417 23.5323 20.3971C23.5936 20.2524 23.6833 20.121 23.7963 20.0105C23.9092 19.8999 24.0432 19.8123 24.1906 19.7527C24.338 19.6931 24.4959 19.6627 24.6553 19.6631C24.8143 19.663 24.9718 19.6937 25.1187 19.7535C25.2656 19.8132 25.3991 19.9009 25.5116 20.0115C25.624 20.1221 25.7132 20.2534 25.7739 20.3979C25.8347 20.5423 25.866 20.6972 25.8658 20.8536C25.8665 21.0104 25.8357 21.1658 25.7752 21.3109C25.7147 21.456 25.6257 21.5879 25.5132 21.6991C25.4007 21.8103 25.2671 21.8985 25.1198 21.9588C24.9726 22.019 24.8148 22.0501 24.6553 22.0502C24.4955 22.0504 24.3372 22.0196 24.1895 21.9595C24.0418 21.8994 23.9076 21.8113 23.7946 21.7001C23.6816 21.589 23.5921 21.457 23.531 21.3117C23.47 21.1664 23.4387 21.0108 23.439 20.8536V20.8536Z" fill="#00ACEC"/>
<path d="M25.7196 20.8536C25.7197 20.7161 25.6922 20.58 25.6387 20.453C25.5852 20.326 25.5068 20.2107 25.408 20.1135C25.3091 20.0163 25.1918 19.9393 25.0626 19.8867C24.9335 19.8342 24.7951 19.8073 24.6553 19.8074C24.5153 19.807 24.3767 19.8338 24.2473 19.8862C24.1178 19.9386 24.0002 20.0156 23.9011 20.1128C23.8019 20.2099 23.7233 20.3254 23.6696 20.4525C23.6159 20.5796 23.5882 20.7159 23.5881 20.8536C23.5881 21.1315 23.7004 21.3981 23.9003 21.5947C24.1001 21.7912 24.3712 21.9017 24.6539 21.9017C24.9365 21.9017 25.2076 21.7912 25.4075 21.5947C25.6073 21.3981 25.7196 21.1315 25.7196 20.8536V20.8536Z" fill="white"/>
<path d="M25.2587 21.5224H25.0623L24.6737 20.9068H24.3697V21.5224H24.2041V20.1876H24.7949C24.9093 20.1876 25.0237 20.1943 25.1255 20.2536C25.2274 20.3101 25.2776 20.4288 25.2776 20.5408C25.2776 20.8038 25.0908 20.9006 24.8489 20.9068L25.2587 21.5224V21.5224Z" fill="#00ACEC"/>
<path d="M24.624 20.7786C24.8147 20.7786 25.1101 20.8099 25.1101 20.5375C25.1101 20.3315 24.9257 20.3068 24.7572 20.3068H24.3701V20.7786H24.624ZM28.523 12.814C28.5254 13.2346 28.3941 13.3675 28.0761 13.3675C27.897 13.3675 27.7879 13.2901 27.7879 13.179C27.7884 12.8866 28.2271 12.9555 28.523 12.814V12.814ZM33.1808 12.7044C33.1808 12.9654 33.0809 13.227 32.7666 13.227C32.4708 13.227 32.4099 12.9531 32.4099 12.7167C32.4099 12.4689 32.4925 12.1851 32.7937 12.1851C33.0939 12.1851 33.1808 12.4551 33.1808 12.7044Z" fill="white"/>
</g>
<defs>
<clipPath id="clip0_2607_235">
<rect width="36.7725" height="23" fill="white" transform="translate(0.227539 0.191406)"/>
</clipPath>
</defs>
</svg>
