<svg width="32" height="25" viewBox="0 0 32 25" fill="none" xmlns="http://www.w3.org/2000/svg">
<path d="M31.3655 24.5554V24.6194H31.4252C31.4364 24.6196 31.4474 24.6168 31.4572 24.6112C31.4611 24.6085 31.4642 24.6048 31.4663 24.6005C31.4684 24.5963 31.4694 24.5915 31.4692 24.5868C31.4694 24.5821 31.4684 24.5775 31.4663 24.5733C31.4642 24.5691 31.461 24.5655 31.4572 24.5629C31.4475 24.5571 31.4364 24.5543 31.4252 24.5548H31.3655V24.5554ZM31.4258 24.5101C31.4514 24.5086 31.4767 24.5159 31.4975 24.5309C31.5058 24.5378 31.5124 24.5464 31.5168 24.5563C31.5211 24.5661 31.5231 24.5768 31.5226 24.5876C31.523 24.5968 31.5214 24.606 31.5179 24.6146C31.5144 24.6232 31.5092 24.6309 31.5024 24.6373C31.4864 24.6512 31.4663 24.6596 31.4452 24.6612L31.5252 24.7523H31.4636L31.39 24.6618H31.3661V24.7523H31.3146V24.5103H31.4266L31.4258 24.5101ZM31.4098 24.8359C31.4368 24.8361 31.4636 24.8307 31.4884 24.8199C31.5122 24.8096 31.534 24.7949 31.5524 24.7765C31.5708 24.7582 31.5855 24.7364 31.5957 24.7125C31.6167 24.6618 31.6167 24.6048 31.5957 24.5541C31.5854 24.5303 31.5707 24.5086 31.5524 24.4901C31.5339 24.4718 31.5122 24.4571 31.4884 24.4468C31.4635 24.4366 31.4367 24.4315 31.4098 24.4317C31.3824 24.4315 31.3553 24.4366 31.3298 24.4468C31.3054 24.4569 31.2832 24.4716 31.2644 24.4901C31.2361 24.5192 31.217 24.5559 31.2094 24.5957C31.2018 24.6355 31.206 24.6767 31.2217 24.7141C31.2314 24.7381 31.246 24.7599 31.2644 24.7781C31.2832 24.7966 31.3054 24.8114 31.3298 24.8215C31.3551 24.8323 31.3823 24.8377 31.4098 24.8375M31.4098 24.3735C31.4801 24.3734 31.5476 24.401 31.5978 24.4503C31.622 24.474 31.6412 24.5022 31.6544 24.5333C31.6681 24.5653 31.6751 24.5997 31.6751 24.6345C31.6751 24.6693 31.6681 24.7037 31.6544 24.7357C31.6409 24.7667 31.6217 24.7948 31.5978 24.8187C31.5732 24.8423 31.5447 24.8612 31.5135 24.8747C31.4807 24.8887 31.4454 24.8957 31.4098 24.8955C31.3738 24.8958 31.3381 24.8887 31.3049 24.8747C31.2733 24.8615 31.2445 24.8426 31.2199 24.8187C31.196 24.794 31.1771 24.7649 31.1641 24.733C31.1504 24.701 31.1434 24.6666 31.1434 24.6318C31.1434 24.597 31.1504 24.5626 31.1641 24.5306C31.1773 24.4995 31.1965 24.4712 31.2207 24.4476C31.2449 24.4234 31.2739 24.4043 31.3057 24.3916C31.3389 24.3776 31.3746 24.3705 31.4106 24.3708M6.91368 23.4387C6.91368 22.9772 7.21604 22.5981 7.71022 22.5981C8.18248 22.5981 8.50116 22.9609 8.50116 23.4387C8.50116 23.9166 8.18248 24.2794 7.71022 24.2794C7.21604 24.2794 6.91368 23.9003 6.91368 23.4387M9.03949 23.4387V22.1253H8.46853V22.4453C8.28743 22.2088 8.01274 22.0605 7.63919 22.0605C6.90328 22.0605 6.32575 22.6377 6.32575 23.4394C6.32575 24.241 6.90296 24.8183 7.63919 24.8183C8.01258 24.8183 8.28743 24.6698 8.46853 24.4335V24.7523H9.03885V23.4387H9.03949ZM28.3318 23.4387C28.3318 22.9772 28.6342 22.5981 29.1285 22.5981C29.6012 22.5981 29.9194 22.9609 29.9194 23.4387C29.9194 23.9166 29.6012 24.2794 29.1285 24.2794C28.6343 24.2794 28.3318 23.9003 28.3318 23.4387ZM30.4583 23.4387V21.071H29.8868V22.4453C29.7057 22.2088 29.431 22.0605 29.0575 22.0605C28.3216 22.0605 27.744 22.6377 27.744 23.4394C27.744 24.241 28.3212 24.8183 29.0575 24.8183C29.431 24.8183 29.7057 24.6698 29.8868 24.4335V24.7523H30.4583V23.4387ZM16.126 22.571C16.4939 22.571 16.7302 22.8017 16.7905 23.2079H15.4281C15.4891 22.8287 15.7193 22.571 16.1261 22.571M16.1375 22.0591C15.368 22.0591 14.8296 22.619 14.8296 23.438C14.8296 24.2729 15.3896 24.8168 16.1757 24.8168C16.5712 24.8168 16.9334 24.7181 17.2521 24.4489L16.9723 24.0257C16.7521 24.2017 16.4718 24.3004 16.2084 24.3004C15.8404 24.3004 15.5054 24.13 15.423 23.6573H17.3727C17.3783 23.5863 17.3841 23.5146 17.3841 23.4378C17.3783 22.6192 16.8721 22.0589 16.1372 22.0589M23.0307 23.4378C23.0307 22.9762 23.3331 22.5971 23.8272 22.5971C24.2995 22.5971 24.6182 22.9599 24.6182 23.4378C24.6182 23.9157 24.2995 24.2785 23.8272 24.2785C23.3331 24.2785 23.0305 23.8993 23.0305 23.4378M25.1564 23.4378V22.1253H24.5857V22.4453C24.404 22.2088 24.1299 22.0605 23.7564 22.0605C23.0205 22.0605 22.4429 22.6377 22.4429 23.4394C22.4429 24.241 23.0201 24.8183 23.7564 24.8183C24.1299 24.8183 24.404 24.6698 24.5857 24.4335V24.7523H25.1565V23.4387L25.1564 23.4378ZM19.8063 23.4378C19.8063 24.2343 20.3608 24.8167 21.2071 24.8167C21.6026 24.8167 21.8661 24.7287 22.151 24.5036L21.8768 24.042C21.6624 24.1961 21.4373 24.2785 21.1889 24.2785C20.7331 24.2729 20.3979 23.9433 20.3979 23.4378C20.3979 22.9323 20.7331 22.6029 21.1889 22.5971C21.4367 22.5971 21.6618 22.6795 21.8768 22.8335L22.151 22.372C21.8656 22.1469 21.6021 22.0589 21.2071 22.0589C20.3608 22.0589 19.8063 22.6411 19.8063 23.4378M27.167 22.0589C26.8376 22.0589 26.6231 22.213 26.4748 22.4437V22.1253H25.9089V24.7509H26.4805V23.2791C26.4805 22.8446 26.6672 22.6032 27.0404 22.6032C27.1627 22.6014 27.284 22.6239 27.3975 22.6692L27.5735 22.1311C27.4471 22.0813 27.2823 22.0594 27.1667 22.0594M11.8623 22.3341C11.5877 22.153 11.2091 22.0594 10.7916 22.0594C10.1264 22.0594 9.69813 22.3782 9.69813 22.8999C9.69813 23.328 10.017 23.5922 10.6041 23.6746L10.8738 23.713C11.1869 23.7569 11.3347 23.8393 11.3347 23.9876C11.3347 24.1907 11.1268 24.3065 10.7362 24.3065C10.3408 24.3065 10.0554 24.1801 9.86291 24.0318L9.59463 24.477C9.90771 24.7077 10.3032 24.8178 10.7314 24.8178C11.4897 24.8178 11.9292 24.4607 11.9292 23.9608C11.9292 23.4992 11.5833 23.2578 11.0119 23.1754L10.7428 23.1364C10.4956 23.1044 10.2976 23.0546 10.2976 22.8787C10.2976 22.6867 10.4843 22.5712 10.7975 22.5712C11.1327 22.5712 11.4571 22.6976 11.6161 22.7963L11.8633 22.3347L11.8623 22.3341ZM19.2296 22.0599C18.9002 22.0599 18.6856 22.2139 18.538 22.4446V22.1253H17.9721V24.7509H18.5431V23.2791C18.5431 22.8446 18.7298 22.6032 19.103 22.6032C19.2253 22.6014 19.3466 22.6239 19.4601 22.6692L19.6361 22.1311C19.5097 22.0813 19.3449 22.0594 19.2293 22.0594M14.3572 22.1253H13.4236V21.3288H12.8464V22.1253H12.3138V22.6472H12.8464V23.8449C12.8464 24.4541 13.0828 24.817 13.7583 24.817C14.0061 24.817 14.2915 24.7402 14.4726 24.614L14.3076 24.1251C14.1373 24.2238 13.9506 24.2735 13.8021 24.2735C13.5167 24.2735 13.4236 24.0975 13.4236 23.8341V22.6476H14.3572V22.1253ZM5.82086 24.7515V23.1038C5.82086 22.4832 5.42539 22.0656 4.78787 22.06C4.45271 22.0544 4.10699 22.1587 3.86494 22.5272C3.68384 22.236 3.39844 22.06 2.99721 22.06C2.71677 22.06 2.44272 22.1424 2.22819 22.4499V22.1253H1.65674V24.7509H2.23267V23.2951C2.23267 22.8393 2.48543 22.5971 2.87579 22.5971C3.25494 22.5971 3.44675 22.8443 3.44675 23.2893V24.7506H4.02396V23.2948C4.02396 22.839 4.28745 22.5968 4.66644 22.5968C5.05631 22.5968 5.24237 22.8439 5.24237 23.289V24.7503L5.82086 24.7515Z" fill="#231F20"/>
<path d="M31.691 16.0176V15.6337H31.591L31.4753 15.8972L31.3603 15.6337H31.26V16.0176H31.331V15.7284L31.4392 15.9779H31.5128L31.6209 15.7277V16.0176H31.6913H31.691ZM31.0567 16.0176V15.6994H31.1847V15.6346H30.8577V15.6994H30.9857V16.0176H31.056H31.0567Z" fill="#F79410"/>
<path d="M20.3265 17.6642H11.6738V2.11414H20.3267L20.3265 17.6642Z" fill="#FF5F00"/>
<path d="M12.2225 9.8895C12.2225 6.73517 13.6994 3.92528 15.9993 2.11447C14.2584 0.741753 12.1052 -0.00326499 9.8882 1.07562e-05C4.42697 1.07562e-05 0 4.42762 0 9.8895C0 15.3514 4.42697 19.779 9.8882 19.779C12.1052 19.7823 14.2585 19.0373 15.9994 17.6645C13.6997 15.854 12.2225 13.044 12.2225 9.8895Z" fill="#EB001B"/>
<path d="M32 9.8895C32 15.3514 27.573 19.779 22.1118 19.779C19.8945 19.7822 17.741 19.0372 15.9998 17.6645C18.3003 15.8537 19.7772 13.044 19.7772 9.8895C19.7772 6.73501 18.3003 3.92528 15.9998 2.11447C17.741 0.741795 19.8944 -0.00320757 22.1116 1.0381e-05C27.5729 1.0381e-05 31.9998 4.42762 31.9998 9.8895" fill="#F79E1B"/>
</svg>
